<svg xmlns="http://www.w3.org/2000/svg" width="167" height="168" viewBox="0 0 167 168">
    <g fill="none" fill-rule="evenodd" stroke="#000" stroke-linejoin="round">
        <path stroke-linecap="round" d="M18.69 165.567c2.445-.275 2.747-1.487.907-3.635-2.761-3.222-7.403-8.165-12.103-10.698-4.7-2.532-10.344-5.646-2.849-5.646 7.495 0 31.433 8.117 31.87 8.117.435 0-35.701-49.048-8.751-91.466-5.26 1.393-10.363.932-4.395 4.295 5.969 3.363 41.93 25.157 113.78 17.396-.69 9.169-3.996 26.909-14.728 45.613 12.173-23.242 18.421-36.378 27.814-34.4 9.393 1.977 9.909 14.983 7.65 18.76-2.259 3.777-13.122 15.972-37.895 18.404-5.812 10.411-18.314 26.678-34.726 32.197 5.371-5.227 14.887-14.237 30.138-20.306 15.252-6.07 47.805-16.548 49.778-32.802 1.972-16.253-1.389-21.264-16.76-23.04-4.618-.01-7.723.39-9.318 1.197 1.537-5.682.886-9.63-1.952-11.845-4.258-3.323-18.409-10.404-53.222-16.51-34.814-6.106-64.791-2.839-66.106 3.382-1.314 6.22-5.445 64.147 32.144 94.3 19.249 6.878 36.188 11.248 62.662 5.624 4.349-1.404 3.85-2.43 5.025-3.235 1.176-.806 2.185-2.43 6.615.663 2.953 2.063 5.015 3.771 6.185 5.124"/>
        <path d="M52.557 49.964C70.316 38.622 85.8 29.837 99.007 23.609c19.813-9.342 38.96-18.657 26.497-21.878-12.462-3.222-92.911 4.826-88.258 12.152 4.653 7.326 48.027 2.727 77.681 14.131 44.18 15.654-75.482 14.855-80.332 29.93 1.996 5.087 13.435-2.595 32.18-3.971 18.743-1.377 20.92 1.123 4.577 8.886-42.875 11.334-49.14 7.035-18.795-12.895z"/>
    </g>
</svg>
