<svg xmlns="http://www.w3.org/2000/svg" width="62" height="79" viewBox="0 0 62 79">
    <g fill="none" fill-rule="nonzero">
        <path fill="#FFF" d="M1.499 1.437h25.778a4.29 4.29 0 0 1 4.291 4.29v65.871a4.29 4.29 0 0 1-4.29 4.29H1.498V1.438z"/>
        <path fill="#FFECAF" d="M30.136 1.437h25.779a4.291 4.291 0 0 1 4.29 4.29v65.871a4.291 4.291 0 0 1-4.29 4.29H30.136V1.438z"/>
        <path fill="#FFF8DF" d="M5.795 1.437h45.824a4.29 4.29 0 0 1 4.29 4.29v65.871a4.29 4.29 0 0 1-4.29 4.29H5.795V1.438z"/>
        <path fill="#FFDD6E" d="M16.842 17h28v5h-28zM13.842 27h34v3h-34zM13.842 33h34v3h-34zM13.842 39h34v3h-34zM13.842 45h34v3h-34zM13.842 51h17v3h-17z"/>
        <path fill="#FFC300" d="M30.5 67a2.5 2.5 0 1 1 0 5 2.5 2.5 0 0 1 0-5z"/>
        <g fill="#FFC300">
            <path d="M55.916 77.315h-3.77c-.208 0-.413.883-.615.883h-5.393c-.307 0-.598-.883-.872-.883H1.499a1.431 1.431 0 0 1-1.432-1.432V1.432A1.432 1.432 0 0 1 1.5 0h54.417a5.729 5.729 0 0 1 5.721 5.722v65.871a5.729 5.729 0 0 1-5.721 5.722zM2.93 74.451h52.985a2.861 2.861 0 0 0 2.858-2.858V5.722a2.861 2.861 0 0 0-2.858-2.858H2.93V74.45z"/>
            <path d="M54.478 64.92H7.227a1.432 1.432 0 0 1-1.432-1.433V7.737a1.432 1.432 0 0 1 1.432-1.432h47.251a1.433 1.433 0 0 1 1.432 1.432v55.75a1.433 1.433 0 0 1-1.432 1.432zm-46.75-2.464h46V8.67h-46v53.786z"/>
        </g>
    </g>
</svg>
