<svg xmlns="http://www.w3.org/2000/svg" width="72" height="77" viewBox="0 0 72 77">
    <g fill="none" fill-rule="nonzero">
        <path fill="#A6B5CD" d="M37.174 1.324h27.762a5.341 5.341 0 0 1 5.342 5.342v63.468a5.342 5.342 0 0 1-5.342 5.342H37.174V1.324z"/>
        <path fill="#FFF" d="M6.719 1.324h27.762a5.341 5.341 0 0 1 5.341 5.342v63.468a5.342 5.342 0 0 1-5.341 5.342H6.719V1.324z"/>
        <path fill="#DEE4F5" d="M10.691 1.324h50.273a5.342 5.342 0 0 1 5.341 5.342v63.468a5.342 5.342 0 0 1-5.341 5.342H10.69V1.324z"/>
        <g fill="#2D496E">
            <path d="M6.719 70.18a1.324 1.324 0 0 1-1.324-1.325v-3.972a1.324 1.324 0 0 1 2.648 0v3.972A1.324 1.324 0 0 1 6.72 70.18z"/>
            <path d="M21.285 76.8H6.719a1.324 1.324 0 0 1-1.324-1.324v-6.62a1.324 1.324 0 0 1 2.648 0v5.296H19.96V2.648H8.043v7.945a1.324 1.324 0 0 1-2.648 0V1.324A1.324 1.324 0 0 1 6.719 0h14.565a1.324 1.324 0 0 1 1.325 1.324v74.152a1.324 1.324 0 0 1-1.324 1.324z"/>
            <path d="M6.719 70.18a6.62 6.62 0 1 1 6.62-6.621 1.324 1.324 0 0 1-2.648 0A3.972 3.972 0 1 0 6.72 67.53a1.324 1.324 0 0 1 0 2.648z"/>
            <path d="M12.015 56.938a1.324 1.324 0 0 1-1.324-1.324 3.972 3.972 0 1 0-7.945 0 1.324 1.324 0 0 1-2.648 0 6.62 6.62 0 1 1 13.242 0 1.324 1.324 0 0 1-1.325 1.324z"/>
            <path d="M12.015 48.993a1.324 1.324 0 0 1-1.324-1.324 3.972 3.972 0 0 0-7.945 0 1.324 1.324 0 0 1-2.648 0 6.62 6.62 0 1 1 13.242 0 1.324 1.324 0 0 1-1.325 1.324z"/>
            <path d="M12.015 41.048a1.324 1.324 0 0 1-1.324-1.324 3.972 3.972 0 1 0-7.945 0 1.324 1.324 0 0 1-2.648 0 6.62 6.62 0 1 1 13.242 0 1.324 1.324 0 0 1-1.325 1.324z"/>
            <path d="M12.015 33.104a1.324 1.324 0 0 1-1.324-1.325 3.972 3.972 0 0 0-7.945 0 1.324 1.324 0 0 1-2.648 0 6.62 6.62 0 1 1 13.242 0 1.324 1.324 0 0 1-1.325 1.325z"/>
            <path d="M12.015 25.159a1.324 1.324 0 0 1-1.324-1.325 3.972 3.972 0 1 0-7.945 0 1.324 1.324 0 0 1-2.648 0 6.62 6.62 0 1 1 13.242 0 1.324 1.324 0 0 1-1.325 1.325z"/>
            <path d="M12.015 17.214a1.324 1.324 0 0 1-1.324-1.324 3.972 3.972 0 0 0-7.945 0 1.324 1.324 0 0 1-2.648 0 6.62 6.62 0 1 1 13.242 0 1.324 1.324 0 0 1-1.325 1.324zM66.31 76.8H21.285a1.324 1.324 0 0 1-1.325-1.324V1.329A1.324 1.324 0 0 1 21.285.005H66.31a5.298 5.298 0 0 1 5.292 5.292v66.212A5.298 5.298 0 0 1 66.31 76.8zm-43.701-2.648h43.7a2.646 2.646 0 0 0 2.645-2.643V5.296a2.647 2.647 0 0 0-2.644-2.643H22.609v71.499z"/>
        </g>
    </g>
</svg>
