<svg xmlns="http://www.w3.org/2000/svg" width="62" height="85" viewBox="0 0 62 85">
    <g fill="none" fill-rule="nonzero">
        <path fill="#F7E8E5" d="M15.818 83.048l-4.296-2.864-4.295 2.864v-7.16h8.59z"/>
        <path fill="#FFF" d="M1.499 1.437h25.778a4.29 4.29 0 0 1 4.291 4.29v65.871a4.29 4.29 0 0 1-4.29 4.29H1.498V1.438z"/>
        <path fill="#F39C88" d="M30.136 1.437h25.779a4.291 4.291 0 0 1 4.29 4.29v65.871a4.291 4.291 0 0 1-4.29 4.29H30.136V1.438z"/>
        <path fill="#F7E8E5" d="M5.795 1.437h45.824a4.29 4.29 0 0 1 4.29 4.29v65.871a4.29 4.29 0 0 1-4.29 4.29H5.795V1.438z"/>
        <path fill="#F4AB9A" d="M44.455 1.432h7.159v74.453h-7.159z"/>
        <g fill="#E15B3D">
            <path d="M55.916 77.315H1.499a1.432 1.432 0 0 1-1.432-1.432V1.432A1.432 1.432 0 0 1 1.5 0h54.417a5.729 5.729 0 0 1 5.721 5.722v65.871a5.729 5.729 0 0 1-5.721 5.722zM2.93 74.451h52.985a2.861 2.861 0 0 0 2.858-2.858V5.722a2.861 2.861 0 0 0-2.858-2.858H2.93V74.45z"/>
            <path d="M51.614 77.315h-7.159a1.432 1.432 0 0 1-1.432-1.432V1.432A1.431 1.431 0 0 1 44.455 0h7.16a1.432 1.432 0 0 1 1.431 1.432v74.451a1.431 1.431 0 0 1-1.432 1.432zm-5.727-2.864h4.295V2.864h-4.295V74.45z"/>
            <path d="M44.455 52.989H1.499a1.432 1.432 0 0 1-1.432-1.432V25.783A1.432 1.432 0 0 1 1.5 24.352h42.956a1.432 1.432 0 0 1 1.432 1.431v25.774a1.432 1.432 0 0 1-1.432 1.432zM2.931 50.125h40.092v-22.91H2.931v22.91zM60.206 52.989h-8.592a1.432 1.432 0 0 1-1.432-1.432V25.783a1.431 1.431 0 0 1 1.432-1.431h8.592a1.433 1.433 0 0 1 1.431 1.431v25.774a1.432 1.432 0 0 1-1.431 1.432zm-7.16-2.864h5.728v-22.91h-5.728v22.91zM15.818 84.474c-.283 0-.56-.083-.795-.24l-3.5-2.334-3.502 2.334a1.432 1.432 0 0 1-2.226-1.192v-7.159a1.431 1.431 0 0 1 1.432-1.432h8.59a1.432 1.432 0 0 1 1.433 1.432v7.16a1.432 1.432 0 0 1-1.432 1.431zm-4.296-5.727c.283 0 .56.083.794.24l2.07 1.38v-3.052H8.658v3.053l2.07-1.38c.235-.158.511-.241.794-.241z"/>
        </g>
    </g>
</svg>
