<svg xmlns="http://www.w3.org/2000/svg" width="70" height="72" viewBox="0 0 70 72">
    <g fill="none" fill-rule="evenodd">
        <path fill="#E15B3D" d="M19 1a2 2 0 0 1 2 2v48.999L68 52a2 2 0 0 1 2 2v16a2 2 0 0 1-2 2H2a2 2 0 0 1-2-2V3a2 2 0 0 1 2-2h17z"/>
        <path fill="#FAF9F6" d="M3.992 68.353V5h12.696v50.875H41.442l24.753-.08v12.477H3.992z"/>
        <path fill="#E15B3D" fill-rule="nonzero" stroke="#E15B3D" d="M53.108 18.8H32.892c-.476 0-.892.466-.892 1s.416 1 .892 1h20.216c.476 0 .892-.466.892-1 0-.602-.358-1-.892-1zM53.108 24.8H32.892c-.476 0-.892.466-.892 1s.416 1 .892 1h20.216c.476 0 .892-.466.892-1 0-.602-.358-1-.892-1z"/>
        <path fill="#E15B3D" fill-rule="nonzero" stroke="#E15B3D" stroke-width="2" d="M69 22.792a1.225 1.225 0 0 0-.485-.738l-7.45-3.14V2.724c0-.494-.424-.924-.909-.924H26.844c-.485 0-.908.43-.908.923v16.19l-7.33 3.079c-.365.062-.606.43-.606.86v31.025c0 .493.423.923.909.923h49.18c.485 0 .908-.43.908-.923L69 22.853l.001-.06zm-47.94.02l5.1-2.012v5l-5.1-2.988zM60.84 25.8v-5l5.1 2.012-5.1 2.988zm-33.66 1.424V3.8H58.8v23.362L42.99 36.8l-15.81-9.576zM66.96 23.8v28.728H20.04V23.8l23.038 14.53c.18.125.3.125.42.125.119 0 .238 0 .48-.125L66.96 23.8z"/>
        <path fill="#E15B3D" fill-rule="nonzero" d="M48.897 14.8h5.206a.92.92 0 0 0 .897-.897V8.697a.92.92 0 0 0-.897-.897h-5.206a.92.92 0 0 0-.897.897v5.206c0 .476.418.897.897.897z"/>
    </g>
</svg>
