<svg xmlns="http://www.w3.org/2000/svg" width="70" height="71" viewBox="0 0 70 71">
    <g fill="none" fill-rule="evenodd">
        <path fill="#E15B3D" d="M18.5 0a2 2 0 0 1 2 2v48.999L68 51a2 2 0 0 1 2 2v16a2 2 0 0 1-2 2H2a2 2 0 0 1-2-2V2a2 2 0 0 1 2-2h16.5z"/>
        <path fill="#FAF9F6" d="M3.992 67.353V4h12.696v50.875H41.442l24.753-.08v12.477H3.992z"/>
        <path fill="#E15B3D" d="M18.529 0h5.777l-1.42 1.963-3.394.246-1.17-1.105zM70 46.674V54.8l-1.91-.53-.876-4.92z"/>
        <path fill="#E15B3D" fill-rule="nonzero" d="M18.656 54.5h49.688c.916 0 1.656-.761 1.656-1.703V1.703C70 .761 69.26 0 68.344 0H18.656C17.74 0 17 .761 17 1.703v51.094c0 .942.74 1.703 1.656 1.703zm48.032-3.406H45.156v-5.11c0-2.347-1.858-4.257-4.14-4.257-.914 0-1.794.223-2.55.649-.24.133-.496.202-.763.202-.913 0-1.656-.764-1.656-1.703 0-.94.743-1.703 1.656-1.703.267 0 .523.07.764.202.755.423 1.638.65 2.549.65 2.282 0 4.14-1.911 4.14-4.258v-6.813h6.625c.456 0 .828.383.828.852 0 .37-.077.71-.225.987a5.154 5.154 0 0 0-.603 2.419c0 2.818 2.228 5.11 4.969 5.11 2.74 0 4.969-2.292 4.969-5.11 0-.841-.207-1.677-.603-2.419a2.112 2.112 0 0 1-.225-.987c0-.469.372-.852.828-.852h4.968v22.14zM45.156 3.406h21.532v22.14h-4.97c-2.282 0-4.14 1.912-4.14 4.259 0 .94.218 1.844.632 2.62.129.248.196.512.196.786 0 .94-.742 1.703-1.656 1.703-.914 0-1.656-.764-1.656-1.703 0-.274.067-.538.196-.785a5.59 5.59 0 0 0 .632-2.621c0-2.347-1.858-4.258-4.14-4.258h-6.626v-6.813c0-.468.373-.851.828-.851.36 0 .691.08.96.231.722.407 1.535.62 2.353.62 2.74 0 4.969-2.29 4.969-5.109 0-2.818-2.229-5.11-4.97-5.11-.817 0-1.63.214-2.352.62-.269.152-.6.232-.96.232a.843.843 0 0 1-.828-.851v-5.11zm-24.843 0h21.53v5.11c0 2.347 1.859 4.257 4.141 4.257.914 0 1.794-.223 2.55-.649.238-.133.494-.202.763-.202.913 0 1.656.764 1.656 1.703 0 .94-.743 1.703-1.656 1.703-.267 0-.523-.07-.764-.202a5.228 5.228 0 0 0-2.549-.65c-2.282 0-4.14 1.911-4.14 4.258v6.813h-6.625a.843.843 0 0 1-.828-.852c0-.37.077-.71.225-.987a5.154 5.154 0 0 0 .603-2.419c0-2.818-2.228-5.11-4.969-5.11-2.74 0-4.969 2.292-4.969 5.11 0 .841.207 1.677.603 2.419.148.277.225.62.225.987a.843.843 0 0 1-.828.852h-4.968V3.407zm0 25.547h4.968c2.283 0 4.14-1.91 4.14-4.258 0-.94-.217-1.844-.63-2.62a1.679 1.679 0 0 1-.197-.786c0-.94.742-1.703 1.656-1.703.914 0 1.656.764 1.656 1.703 0 .274-.067.538-.196.785a5.59 5.59 0 0 0-.632 2.621c0 2.347 1.858 4.258 4.14 4.258h6.626v6.813a.843.843 0 0 1-.828.851c-.36 0-.691-.08-.96-.231a4.796 4.796 0 0 0-2.353-.62c-2.74 0-4.969 2.29-4.969 5.109 0 2.818 2.229 5.11 4.97 5.11.817 0 1.63-.214 2.352-.62.269-.152.6-.232.96-.232.455 0 .828.383.828.851v5.11H20.312v-22.14z"/>
    </g>
</svg>
