<svg xmlns="http://www.w3.org/2000/svg" width="70" height="71" viewBox="0 0 70 71">
    <g fill="none" fill-rule="evenodd">
        <path fill="#E15B3D" d="M21 0v50.999L68 51a2 2 0 0 1 2 2v16a2 2 0 0 1-2 2H2a2 2 0 0 1-2-2V2a2 2 0 0 1 2-2h19z"/>
        <path fill="#FAF9F6" d="M3.992 67.353V4h12.696v50.875H41.442l24.753-.08v12.477H3.992z"/>
        <path fill="#E15B3D" d="M19.953 0h2.498l-.349.579-1.666.841-.701-1.075z"/>
        <path fill="#E15B3D" fill-rule="nonzero" d="M38.828 8.774H61.03a1.137 1.137 0 0 1 0 2.275h-22.2a1.137 1.137 0 0 1 0-2.275zM38.776 14.354h22.253a1.137 1.137 0 0 1 0 2.275H38.776a1.137 1.137 0 1 1 0-2.275zM25.991 20.257H61.03a1.137 1.137 0 1 1 0 2.275H25.991a1.137 1.137 0 0 1 0-2.275zM26.047 26h35.038a1.137 1.137 0 1 1 0 2.275H26.047a1.137 1.137 0 0 1 0-2.275zM26.047 31.743h35.038a1.137 1.137 0 1 1 0 2.274H26.047a1.137 1.137 0 0 1 0-2.274z"/>
        <path fill="#E15B3D" fill-rule="nonzero" stroke="#E15B3D" d="M20.703 40h45.725a1.137 1.137 0 1 1 0 2.275H20.703a1.137 1.137 0 0 1 0-2.275z"/>
        <path fill="#E15B3D" fill-rule="nonzero" d="M65.945 51H20.948V4.118h45L65.945 51zM65.28 0H21.41c-2.596 0-4.707 1.41-4.707 3.142v48.631c0 1.733 2.111 3.143 4.707 3.143h43.87c2.596 0 4.707-1.41 4.707-3.143V3.143C69.987 1.408 67.876 0 65.28 0zM43.5 49.3a2.501 2.501 0 0 1-2.5-2.5c0-1.381 1.122-2.5 2.5-2.5 1.381 0 2.5 1.122 2.5 2.5s-1.122 2.5-2.5 2.5z"/>
        <path fill="#E15B3D" fill-rule="nonzero" d="M26.41 7.962h6.805a1.5 1.5 0 0 1 1.5 1.5v6.48a1.5 1.5 0 0 1-1.5 1.5h-6.806a1.5 1.5 0 0 1-1.5-1.5v-6.48a1.5 1.5 0 0 1 1.5-1.5z"/>
        <path fill="#E15B3D" d="M70 54.021V48.32l-4.052.59 1.005 3.713 2.436 2.294z"/>
    </g>
</svg>
