<svg xmlns="http://www.w3.org/2000/svg" width="70" height="71" viewBox="0 0 70 71">
    <g fill="none" fill-rule="evenodd">
        <path fill="#E15B3D" d="M18.5 0a2 2 0 0 1 2 2v48.999L68 51a2 2 0 0 1 2 2v16a2 2 0 0 1-2 2H2a2 2 0 0 1-2-2V2a2 2 0 0 1 2-2h16.5z"/>
        <path fill="#FAF9F6" d="M3.992 67.353V4h12.696v50.875H41.442l24.753-.08v12.477H3.992z"/>
        <path fill="#E15B3D" fill-rule="nonzero" d="M70 46.254c-.085.424-.17.849-.26 1.268-.831 3.866-3.452 6.514-6.418 6.478-13.646 0-27.292-.037-40.938 0-2.935 0-4.77-2.534-5.214-5.039a9.537 9.537 0 0 1-.164-1.633V13.657c-.041-.652.13-1.296.47-1.763.34-.464.814-.7 1.294-.647h4.86v-8.89c-.035-.63.133-1.248.458-1.698.327-.453.78-.692 1.244-.655h42.952c.78-.012 1.478.672 1.716 1.684v44.566zM27.127 4V33.812c0 5.38.164 10.762-.127 16.185L63.623 50c.904.014 1.772-.47 2.408-1.337.638-.87.987-2.051.968-3.275V4.006H27.104L27.127 4zM20 16v31.654c-.013.622.144 1.227.432 1.672.29.443.687.688 1.1.673.41-.01.8-.28 1.077-.744.277-.46.416-1.073.386-1.698V16.001L20.001 16z"/>
        <path fill="#E15B3D" fill-rule="nonzero" d="M47.036 26.462H33.212c-.903.025-1.66-.649-1.686-1.51-.029-.858.682-1.574 1.586-1.602h27.86c.816-.019 1.525.538 1.656 1.305.133.765-.35 1.507-1.131 1.737-.215.05-.437.072-.656.064H47.036v.006zM47.036 19.862H33.212c-.903.025-1.66-.649-1.686-1.51-.029-.858.682-1.574 1.586-1.602h27.86c.816-.019 1.525.538 1.656 1.305.133.765-.35 1.507-1.131 1.737-.215.05-.437.072-.656.064H47.036v.006zM47.036 13.112H33.212c-.903.025-1.66-.649-1.686-1.51-.029-.858.682-1.574 1.586-1.602h27.86c.816-.019 1.525.538 1.656 1.305.133.765-.35 1.507-1.131 1.737-.215.05-.437.072-.656.064H47.036v.006zM47.116 30.003h13.87c.823-.012 1.526.559 1.647 1.333.118.773-.383 1.512-1.176 1.726a2.217 2.217 0 0 1-.555.049H33.214a1.656 1.656 0 0 1-1.205-.438 1.489 1.489 0 0 1-.483-1.137c-.013-.42.161-.825.479-1.116.32-.292.752-.444 1.194-.417h13.917zM39.311 36.332h4.95-.002c.48-.039.953.138 1.297.486.341.348.52.83.49 1.323v6.797c.028.475-.143.941-.473 1.279a1.589 1.589 0 0 1-1.249.48h-10c-.471.03-.933-.146-1.27-.487a1.715 1.715 0 0 1-.49-1.294v-6.853a1.713 1.713 0 0 1 .484-1.243c.32-.328.759-.505 1.21-.495h5.057l-.004.007zM55.97 37.37h5.097c.44-.026.873.127 1.193.42.32.295.503.702.503 1.131 0 .427-.183.836-.503 1.129-.32.295-.752.446-1.193.423H50.722h.002c-.775-.01-1.427-.565-1.537-1.306-.139-.766.33-1.51 1.094-1.743.195-.047.393-.066.59-.06h5.099v.005zM55.954 46.698h-5.099c-.44.023-.87-.129-1.19-.424a1.535 1.535 0 0 1-.502-1.13c0-.43.182-.837.502-1.132.32-.294.75-.447 1.19-.422h10.196c.883 0 1.599.694 1.599 1.552 0 .857-.716 1.55-1.599 1.55h-5.097v.006z"/>
        <path fill="#E15B3D" d="M70 45v12.373l-3.805-3.805z"/>
    </g>
</svg>
