<svg xmlns="http://www.w3.org/2000/svg" width="70" height="71" viewBox="0 0 70 71">
    <g fill="none" fill-rule="evenodd">
        <path fill="#E15B3D" d="M18.5 0a2 2 0 0 1 2 2v48.999L68 51a2 2 0 0 1 2 2v16a2 2 0 0 1-2 2H2a2 2 0 0 1-2-2V2a2 2 0 0 1 2-2h16.5z"/>
        <path fill="#FAF9F6" d="M3.992 67.353V4h12.696v50.875H41.442l24.753-.08v12.477H3.992z"/>
        <path fill="#E15B3D" fill-rule="nonzero" d="M36.211 31.033a1.478 1.478 0 0 1 0 2.953h-3.28a1.478 1.478 0 0 1-1.476-1.476v-4.577c0-.408.166-.777.434-1.043l2.845-2.847V11.314c0-.422.176-.8.46-1.07l7.702-8.713c.625-.707 1.58-.627 2.215.014l7.778 8.795c.248.279.369.627.369.974l.006 12.729 2.845 2.845c.29.29.432.666.432 1.045v4.577c0 .814-.662 1.476-1.476 1.476h-3.28a1.478 1.478 0 0 1-1.476-1.476c0-.815.662-1.477 1.476-1.477h1.803v-2.488l-2.846-2.846a1.471 1.471 0 0 1-.431-1.045V11.865l-6.313-7.138-6.312 7.138v12.79c0 .378-.145.755-.432 1.044l-2.848 2.846v2.488h1.805zm10.985 4.978c0-.814.662-1.476 1.476-1.476.815 0 1.477.662 1.477 1.477v9.48a1.478 1.478 0 0 1-2.953 0v-9.48zm-9.346 0a1.478 1.478 0 0 1 2.953 0v9.481c0 .814-.662 1.477-1.476 1.477a1.478 1.478 0 0 1-1.477-1.477v-9.48zm4.674-8.09c0-.814.662-1.476 1.476-1.476.815 0 1.477.662 1.477 1.477V40.82a1.478 1.478 0 0 1-2.953 0V27.922zM44 11.862a5.065 5.065 0 1 1 0 10.131 5.064 5.064 0 0 1-5.064-5.067A5.065 5.065 0 0 1 44 11.861zm0 2.953a2.113 2.113 0 1 0 0 4.226 2.113 2.113 0 0 0 0-4.226z"/>
        <path stroke="#E15B3D" stroke-linecap="square" stroke-width="3" d="M20.5 21.5h15"/>
    </g>
</svg>
