<svg xmlns="http://www.w3.org/2000/svg" xmlns:xlink="http://www.w3.org/1999/xlink" width="370" height="133" viewBox="0 0 370 133">
    <defs>
        <path id="a" d="M0 .535h370v144H0z"/>
    </defs>
    <g fill="none" fill-rule="evenodd">
        <mask id="b" fill="#fff">
            <use xlink:href="#a"/>
        </mask>
        <path stroke="#000" d="M3.605-20.134c28.722-.015 52.227 12.237 70.515 36.757 27.432 36.78 27.345 11.22 36.363 15.95 5.6 8.554 24.77 44.123 31.228 53.172 6.459 9.05.178 7.243 2.28 12.462 2.101 5.219 4.751 11.167 24.683 13.956 6.97-.585 6.57-3.868 10.247-6.134 3.678-2.267 72.818-37.192 78.551-40.59 5.734-3.398 6.412-7.383 1.903-5.39-4.508 1.992-68.26 32.415-77.317 39.809-9.056 7.394-6.156 8.57-10.433 8.57s-26.552-5.548-22.74-10.221c3.81-4.674 2.765-5.62-4.894-19.794-7.66-14.173-29.26-56.621-28.284-56.621.976 0 5.335-.452 12.282 16.402 6.947 16.854 4.75 11.728 11.91 21.855 7.159 10.126 14.136 21.444 14.136 28.872 0 7.428 2.514 12.84 4.385 9.286 1.87-3.555 8.919-17.793-4.385-32.768-13.304-14.975-24.178-23.584-26.046-45.228 3.498 2.504 14.804 7.496 36.47 8.892 21.666 1.395 18.28 4.025 23.588 10.348 5.308 6.324 17.567 15.207 21.874 20.598 4.307 5.39 4.066 6.75 1.551 6.75-2.515 0-31.245 3.386-39.847 14.508s-9.305 16.9-8.953 16.9c.351 0 55.663-32.577 85.963-42.404 4.24-1.797 6.83-2.83 7.772-3.095-60.257 30.642-90.386 46.726-90.386 48.25 0 2.288 74.16-43.252 94.276-44.204 7.878 2.537 24.783 23.36 32.413 33.232 5.086 6.581 7.272 9.872 6.558 9.872-10.89 3.224-18.134 6.08-21.735 8.57-5.402 3.735-30.407 15.994-40.971 13.21-10.564-2.785-40.476-13.21-45.948-13.21-5.472 0-7 2.78-9.346 3.735-2.347.956-4.038 3.315-9.643 2.136-5.604-1.18 42.92 12.066 59.965 13.427 11.01.251 11.512-.437 14.278-1.829 2.767-1.391 4.626-1.034 11.604 5.245 6.978 6.278 36.115 17.217 74.756 12.52 25.76-3.132 41.533 1.357 47.318 13.467" mask="url(#b)" transform="rotate(-6 191.575 68.498)"/>
    </g>
</svg>
