<svg xmlns="http://www.w3.org/2000/svg" width="29" height="29" viewBox="0 0 29 29">
    <g fill="#FFF" fill-rule="evenodd">
        <path d="M14.588 1.296a13.089 13.089 0 1 0 12.449 9.044 13.09 13.09 0 0 0-12.45-9.044zm13.68 8.645A14.385 14.385 0 1 1 .908 18.83a14.385 14.385 0 0 1 27.362-8.89z"/>
        <path d="M12.456 17.507c-1.45-.05-2.355-1.091-2.594-1.936.403.077.8.063 1.195-.035l.04-.019c-.785-.182-1.391-.602-1.811-1.279a2.713 2.713 0 0 1-.41-1.483c.393.209.802.326 1.242.337-.59-.425-.986-.98-1.148-1.692a2.761 2.761 0 0 1 .3-2.018c1.51 1.777 3.42 2.754 5.75 2.913-.015-.11-.032-.206-.044-.305a2.702 2.702 0 0 1 .408-1.824c.443-.696 1.078-1.128 1.892-1.26.938-.154 1.756.113 2.44.778l.15.044a5.665 5.665 0 0 0 1.622-.625l.037-.018.018-.001a2.855 2.855 0 0 1-1.194 1.517 5.355 5.355 0 0 0 1.553-.418l.012.012c-.107.14-.21.283-.322.419a5.466 5.466 0 0 1-1.013.964l-.047.087c.016.414 0 .827-.051 1.237a8.227 8.227 0 0 1-.719 2.484 8.006 8.006 0 0 1-1.507 2.199 7.459 7.459 0 0 1-3.833 2.136 8.24 8.24 0 0 1-1.554.183 7.877 7.877 0 0 1-4.462-1.197l-.066-.042c.974.104 1.9-.02 2.79-.384a5.56 5.56 0 0 0 1.326-.774"/>
    </g>
</svg>
