<svg xmlns="http://www.w3.org/2000/svg" width="30" height="29" viewBox="0 0 30 29">
    <g fill="#FFF" fill-rule="evenodd">
        <path d="M14.988 1.296a13.089 13.089 0 1 0 12.449 9.044 13.09 13.09 0 0 0-12.45-9.044zm13.68 8.645a14.385 14.385 0 1 1-27.361 8.89 14.385 14.385 0 0 1 27.362-8.89z"/>
        <path d="M14.503 16.435l-.029.1c-.476 1.865-.528 2.279-1.018 3.145-.234.41-.495.802-.787 1.174l-.128.085-.085-.14a10.138 10.138 0 0 1-.104-1.706c.026-.745.118-1 1.078-5.04l-.022-.168c-.23-.621-.276-1.25-.074-1.889.434-1.377 1.997-1.483 2.27-.346.167.703-.278 1.623-.619 2.984-.283 1.122 1.038 1.92 2.167 1.1 1.04-.754 1.445-2.565 1.368-3.848-.15-2.558-2.956-3.112-4.736-2.288-2.041.944-2.504 3.472-1.584 4.63.118.146.208.236.17.384-.06.232-.112.466-.177.695-.047.172-.191.234-.364.163a2.092 2.092 0 0 1-.852-.637c-.782-.97-1.007-2.886.029-4.508C12.151 8.527 14.283 7.8 16.23 8.02c2.324.265 3.794 1.853 4.069 3.655.125.82.035 2.845-1.117 4.274-1.326 1.644-3.474 1.754-4.467.744l-.212-.259"/>
    </g>
</svg>
