<svg xmlns="http://www.w3.org/2000/svg" width="29" height="29" viewBox="0 0 29 29">
    <g fill="#FFF" fill-rule="evenodd">
        <path d="M14.386 1.296a13.09 13.09 0 1 0 .001 26.18 13.09 13.09 0 0 0 0-26.18zM28.07 9.941A14.387 14.387 0 0 1 5.93 26.024 14.385 14.385 0 1 1 28.07 9.941z"/>
        <path d="M16.342 10.25c.39-.013.78-.003 1.172-.003h.16v-2.03c-.208-.021-.427-.051-.644-.062-.4-.017-.802-.037-1.202-.027-.611.013-1.19.162-1.696.523-.58.417-.898 1.003-1.019 1.694-.05.286-.063.582-.07.871-.013.456-.003.911-.002 1.367v.17h-1.943v2.269h1.931v5.698h2.36v-5.689h1.924l.297-2.279h-.434c-.547.003-1.803 0-1.803 0s.006-1.123.019-1.61c.02-.668.415-.872.95-.892"/>
    </g>
</svg>
