<svg xmlns="http://www.w3.org/2000/svg" width="30" height="29" viewBox="0 0 30 29">
    <g fill="#FFF" fill-rule="evenodd">
        <path d="M14.786 1.296a13.09 13.09 0 1 0 .001 26.18 13.09 13.09 0 0 0 0-26.18zM28.47 9.94a14.388 14.388 0 0 1-5.226 16.084A14.386 14.386 0 1 1 28.469 9.94z"/>
        <path d="M13.284 16.226a9610.26 9610.26 0 0 1 3.79-1.965l-3.79-1.979v3.944zm-3.343 2.187a1.42 1.42 0 0 1-.937-.91c-.407-1.116-.526-5.781.255-6.7.267-.315.611-.5 1.019-.543 2.105-.227 8.61-.194 9.359.076.439.158.751.446.92.885.444 1.153.46 5.349-.057 6.46-.142.301-.37.513-.66.665-.786.412-8.867.406-9.9.067z"/>
    </g>
</svg>
