<svg xmlns="http://www.w3.org/2000/svg" width="111" height="102" viewBox="0 0 111 102">
    <g fill="none" fill-rule="evenodd" opacity=".8" transform="translate(1 1)">
        <path stroke="#000" stroke-width=".7" d="M15.417 18.875c17.308-6.678 33.63-11.787 48.97-15.326 1.761 4.465 10.53 24.622 23.145 38.92 8.41 9.533 15.672 16.878 21.788 22.035-14.106 7.442-23.282 12.422-27.528 14.943-6.368 3.78-27.12 10.672-27.12 11.565 0 .893-12.309-7.44-25.46-29.898-8.768-14.972-13.366-29.052-13.795-42.24z"/>
        <circle cx="25.272" cy="22.725" r="2.1" fill="#000" stroke="#000" stroke-width=".7"/>
        <circle cx="36.472" cy="18.525" r="2.1" fill="#000"/>
        <circle cx="49.422" cy="14.675" r="1.75" fill="#000"/>
        <circle cx="59.922" cy="11.175" r="1.75" fill="#000"/>
        <path stroke="#000" stroke-width=".7" d="M25.713 21.423c1.902-8.692-.492-13.24-7.182-13.643-6.69-.402-10.38 2.188-11.07 7.772"/>
        <path stroke="#000" stroke-width=".7" d="M37.481 17.786c1.913-6.859.877-10.864-3.109-12.015-5.978-1.726-11.2 2.71-11.2 6.473"/>
        <path stroke="#000" stroke-width=".7" d="M50.182 13.752c1.9-5.465 1.063-8.866-2.51-10.203-5.359-2.005-10.751 1.296-10.751 6.428"/>
        <path stroke="#000" stroke-width=".7" d="M60.878 10.657C63.06 4.866 62.159 1.408 58.172.284c-5.98-1.686-7.838 4.596-7.838 6.576"/>
        <g stroke="#000" stroke-width=".7">
            <path d="M27.372 42.966c25.132-10.103 39.934-15.374 44.405-15.813 3.598 5.294 19.439 28.337 26.75 33.793C90.79 65.351 58.655 81.63 55.791 81.63c-8.193-3.505-17.666-16.393-28.419-38.664zM34.372 40.454c10.168 19.905 19.5 32.862 27.997 38.87M42.313 37.487C50.637 56.468 59.886 69.14 70.06 75.502M48.37 34.972c6.532 15.436 15.898 27.863 28.097 37.28M54.054 33.032c7.563 14.964 17.072 27.085 28.53 36.363M59.161 31.186C70.971 49.892 80.708 61.64 88.373 66.43M65.72 28.733c10.271 16.63 19.991 28.27 29.16 34.919M30.792 49.6c26.674-10.18 41.495-16.05 44.461-17.607M34.372 56.494c26.065-10.994 40.83-17.33 44.295-19.007M38.412 63.652c28.733-12.39 43.457-19.125 44.172-20.204M42.947 70.124c29.15-13.155 44.292-19.997 45.426-20.525M49.422 76.867C77.95 64.332 92.542 57.541 93.2 56.494"/>
        </g>
        <path stroke="#000" stroke-width=".7" d="M15.417 19.74c-2.92.254-4.976.815-6.168 1.683-.093 3.07 3.613 26.767 10.868 42.984 4.837 10.812 11.749 21.468 20.736 31.97 6.972-3.448 10.915-5.616 11.83-6.502"/>
        <path stroke="#000" stroke-width=".7" d="M23.172 16.425c-8.635 1.4-14.543 2.8-17.723 4.2-.355 6.458.199 25.048 3.798 43.027 3.6 17.978 11.396 36.22 12.66 36.22 1.265 0 15.354-6.654 15.93-6.654"/>
        <path stroke="#000" stroke-width=".7" d="M47.672 8.354c-27.247 4.473-42.225 7.163-44.937 8.07C.355 28.807-.987 37.758.874 58.149 2.735 78.54 7.75 99.872 9.247 99.872c.999 0 4.517-1.165 10.554-3.496"/>
    </g>
</svg>
